<svg width="19" height="5" viewBox="0 0 19 5" fill="none" xmlns="http://www.w3.org/2000/svg">
<path fill-rule="evenodd" clip-rule="evenodd" d="M2.5 4C3.32843 4 4 3.32843 4 2.5C4 1.67157 3.32843 1 2.5 1C1.67157 1 1 1.67157 1 2.5C1 3.32843 1.67157 4 2.5 4ZM2.5 5C3.88071 5 5 3.88071 5 2.5C5 1.11929 3.88071 0 2.5 0C1.11929 0 0 1.11929 0 2.5C0 3.88071 1.11929 5 2.5 5Z" fill="#5C5DF7"/>
<path fill-rule="evenodd" clip-rule="evenodd" d="M9.5 4C10.3284 4 11 3.32843 11 2.5C11 1.67157 10.3284 1 9.5 1C8.67157 1 8 1.67157 8 2.5C8 3.32843 8.67157 4 9.5 4ZM9.5 5C10.8807 5 12 3.88071 12 2.5C12 1.11929 10.8807 0 9.5 0C8.11929 0 7 1.11929 7 2.5C7 3.88071 8.11929 5 9.5 5Z" fill="#5C5DF7"/>
<path fill-rule="evenodd" clip-rule="evenodd" d="M16.5 4C17.3284 4 18 3.32843 18 2.5C18 1.67157 17.3284 1 16.5 1C15.6716 1 15 1.67157 15 2.5C15 3.32843 15.6716 4 16.5 4ZM16.5 5C17.8807 5 19 3.88071 19 2.5C19 1.11929 17.8807 0 16.5 0C15.1193 0 14 1.11929 14 2.5C14 3.88071 15.1193 5 16.5 5Z" fill="#5C5DF7"/>
</svg>
