<svg width="9" height="12" viewBox="0 0 9 12" fill="none" xmlns="http://www.w3.org/2000/svg">
<path d="M8.66953 2.29643L6.70312 0.330404C6.49219 0.119508 6.20625 0 5.90859 0H1.125C0.503906 0.00234329 0 0.506151 0 1.12712V10.8752C0 11.4962 0.503906 12 1.125 12H7.875C8.49609 12 9 11.4962 9 10.8752V3.09315C9 2.79555 8.88047 2.50732 8.66953 2.29643ZM7.78359 3.00176H6V1.21851L7.78359 3.00176ZM1.125 10.8752V1.12712H4.875V3.56415C4.875 3.87581 5.12578 4.12654 5.4375 4.12654H7.875V10.8752H1.125ZM6.28359 6.00117C6.15 6.00117 6.03516 6.0949 6.00937 6.22378C5.52656 8.51318 5.53125 8.45929 5.51719 8.64909C5.5125 8.62097 5.50781 8.58817 5.50078 8.54833C5.48203 8.42882 5.50781 8.55302 4.94766 6.21675C4.91719 6.09022 4.80469 6.00117 4.67344 6.00117H4.36172C4.23281 6.00117 4.12031 6.09022 4.0875 6.21441C3.51562 8.53427 3.525 8.46866 3.50625 8.64441C3.50391 8.61863 3.50156 8.58582 3.49453 8.54599C3.47813 8.42414 3.16406 6.82835 3.04688 6.22613C3.02109 6.0949 2.90625 5.99883 2.77031 5.99883H2.37656C2.19375 5.99883 2.06016 6.16989 2.10234 6.34564C2.28984 7.10955 2.72813 8.91154 2.88047 9.53251C2.91094 9.65905 3.02344 9.74575 3.15469 9.74575H3.74531C3.87422 9.74575 3.98672 9.65905 4.01719 9.53251L4.43672 7.8594C4.47188 7.71412 4.49531 7.57821 4.50703 7.45401L4.575 7.8594C4.57734 7.86878 4.87031 9.04277 4.99453 9.53251C5.025 9.65671 5.1375 9.74575 5.26641 9.74575H5.84531C5.97422 9.74575 6.08672 9.65905 6.11719 9.53251C6.60469 7.61336 6.825 6.744 6.92578 6.34564C6.97031 6.16755 6.83672 5.99649 6.65391 5.99649H6.28359V6.00117Z" fill="white"/>
</svg>
