<svg width="17" height="14" viewBox="0 0 17 14" fill="none" xmlns="http://www.w3.org/2000/svg">
<path fill-rule="evenodd" clip-rule="evenodd" d="M1.42102 2.5C1.42102 1.39543 2.31645 0.5 3.42102 0.5C4.52559 0.5 5.42102 1.39543 5.42102 2.5V9.5C5.42102 10.6046 4.52559 11.5 3.42102 11.5C2.31645 11.5 1.42102 10.6046 1.42102 9.5V2.5ZM3.42102 1.5C2.86874 1.5 2.42102 1.94772 2.42102 2.5V9.5C2.42102 10.0523 2.86874 10.5 3.42102 10.5C3.97331 10.5 4.42102 10.0523 4.42102 9.5V2.5C4.42102 1.94772 3.97331 1.5 3.42102 1.5ZM6.42102 5.5C6.42102 4.39543 7.31645 3.5 8.42102 3.5C9.52559 3.5 10.421 4.39543 10.421 5.5V9.5C10.421 10.6046 9.52559 11.5 8.42102 11.5C7.31645 11.5 6.42102 10.6046 6.42102 9.5V5.5ZM8.42102 4.5C7.86874 4.5 7.42102 4.94772 7.42102 5.5V9.5C7.42102 10.0523 7.86874 10.5 8.42102 10.5C8.9733 10.5 9.42102 10.0523 9.42102 9.5V5.5C9.42102 4.94772 8.9733 4.5 8.42102 4.5ZM11.421 8.5C11.421 7.39543 12.3165 6.5 13.421 6.5C14.5256 6.5 15.421 7.39543 15.421 8.5V9.5C15.421 10.6046 14.5256 11.5 13.421 11.5C12.3165 11.5 11.421 10.6046 11.421 9.5V8.5ZM13.421 7.5C12.8687 7.5 12.421 7.94772 12.421 8.5V9.5C12.421 10.0523 12.8687 10.5 13.421 10.5C13.9733 10.5 14.421 10.0523 14.421 9.5V8.5C14.421 7.94772 13.9733 7.5 13.421 7.5ZM0.421021 13.5C0.421021 13.2239 0.644878 13 0.921021 13H16.421C16.6972 13 16.921 13.2239 16.921 13.5C16.921 13.7761 16.6972 14 16.421 14H0.921021C0.644878 14 0.421021 13.7761 0.421021 13.5Z" fill="#5C5DF7"/>
</svg>
