<svg width="9" height="12" viewBox="0 0 9 12" fill="none" xmlns="http://www.w3.org/2000/svg">
<path d="M8.66953 2.29492L6.70312 0.328516C6.49219 0.117578 6.20625 -0.00195312 5.90859 -0.00195312H1.125C0.503906 0.000390625 0 0.504297 0 1.12539V10.8754C0 11.4965 0.503906 12.0004 1.125 12.0004H7.875C8.49609 12.0004 9 11.4965 9 10.8754V3.0918C9 2.79414 8.88047 2.50586 8.66953 2.29492ZM7.78359 3.00039H6V1.2168L7.78359 3.00039ZM1.125 10.8754V1.12539H4.875V3.56289C4.875 3.87461 5.12578 4.12539 5.4375 4.12539H7.875V10.8754H1.125ZM6.98906 7.50742C6.70313 7.22617 5.8875 7.30352 5.47969 7.35508C5.07656 7.10898 4.80703 6.76914 4.61719 6.26992C4.70859 5.89258 4.85391 5.31836 4.74375 4.95742C4.64531 4.34336 3.85781 4.4043 3.74531 4.81914C3.64219 5.19648 3.73594 5.72148 3.90938 6.3918C3.675 6.95195 3.32578 7.7043 3.07969 8.13555C2.61094 8.37695 1.97813 8.74961 1.88438 9.21836C1.80703 9.58867 2.49375 10.5121 3.66797 8.48711C4.19297 8.31367 4.76484 8.10039 5.27109 8.01602C5.71406 8.25508 6.23203 8.41445 6.57891 8.41445C7.17656 8.41445 7.23516 7.75352 6.98906 7.50742ZM2.34609 9.33086C2.46562 9.00977 2.92031 8.63945 3.05859 8.51055C2.61328 9.2207 2.34609 9.34727 2.34609 9.33086ZM4.25859 4.86367C4.43203 4.86367 4.41563 5.61602 4.30078 5.81992C4.19766 5.49414 4.2 4.86367 4.25859 4.86367ZM3.68672 8.06524C3.91406 7.66914 4.10859 7.19805 4.26562 6.7832C4.46016 7.13711 4.70859 7.4207 4.97109 7.61523C4.48359 7.71602 4.05938 7.92227 3.68672 8.06524ZM6.77109 7.94805C6.77109 7.94805 6.65391 8.08867 5.89688 7.76523C6.71953 7.7043 6.85547 7.8918 6.77109 7.94805Z" fill="white"/>
</svg>
