<svg width="14" height="14" viewBox="0 0 14 14" fill="none" xmlns="http://www.w3.org/2000/svg">
<path fill-rule="evenodd" clip-rule="evenodd" d="M12.9161 13C12.7098 11.7797 12.1293 10.6441 11.2426 9.75736C10.1174 8.63214 8.5913 8 7 8C5.4087 8 3.88258 8.63214 2.75736 9.75736C1.87067 10.644 1.29016 11.7797 1.08389 13L12.9161 13ZM13.9282 13C13.7137 11.5132 13.0245 10.125 11.9497 9.05025C10.637 7.7375 8.85652 7 7 7C5.14349 7 3.36301 7.7375 2.05025 9.05025C0.975518 10.125 0.286348 11.5132 0.0717678 13C0.0242449 13.3293 0 13.6634 0 14L14 14C14 13.6634 13.9758 13.3293 13.9282 13Z" fill="#5C5DF7"/>
<path fill-rule="evenodd" clip-rule="evenodd" d="M7 5C8.10457 5 9 4.10457 9 3C9 1.89543 8.10457 1 7 1C5.89543 1 5 1.89543 5 3C5 4.10457 5.89543 5 7 5ZM7 6C8.65685 6 10 4.65685 10 3C10 1.34315 8.65685 0 7 0C5.34315 0 4 1.34315 4 3C4 4.65685 5.34315 6 7 6Z" fill="#5C5DF7"/>
</svg>
