<svg width="11" height="12" viewBox="0 0 11 12" fill="none" xmlns="http://www.w3.org/2000/svg">
<path d="M10 4.5V1.81055C10 1.61156 9.92102 1.42102 9.78039 1.28016L8.71961 0.219609C8.57898 0.0789844 8.3882 0 8.18922 0H1.75C1.33586 0 1 0.335859 1 0.75V4.5C0.171484 4.5 0 5.17148 0 6V8.5C0 8.70719 0.292812 9 0.5 9H1V11.25C1 11.6641 1.33586 12 1.75 12H9.25C9.66414 12 10 11.6641 10 11.25V9H10.5C10.7072 9 11 8.70719 11 8.5V6C11 5.17148 10.8285 4.5 10 4.5ZM9.0625 11H2V6.375H9.0625V11ZM9.0625 5.25H2V1H7V2.625C7 2.83219 7.16781 3 7.375 3H9.0625V5.25ZM9.625 6.9375C9.31445 6.9375 9.0625 6.68555 9.0625 6.375C9.0625 6.06422 9.31445 5.8125 9.625 5.8125C9.93555 5.8125 10.1875 6.06422 10.1875 6.375C10.1875 6.68555 9.93555 6.9375 9.625 6.9375Z" fill="white"/>
</svg>
