<svg width="15" height="15" viewBox="0 0 15 15" fill="none" xmlns="http://www.w3.org/2000/svg">
<path fill-rule="evenodd" clip-rule="evenodd" d="M14.7706 0.642482C14.8748 0.744338 14.9293 0.88657 14.92 1.03197C14.7251 4.07474 14.4158 6.51948 13.9097 8.44226C13.4038 10.3642 12.6904 11.8081 11.6561 12.805C9.56557 14.8199 6.3801 14.8168 1.82129 13.8888C1.63913 13.8517 1.49258 13.7166 1.44081 13.5381C0.90545 11.6918 0.526992 10.0209 0.501385 8.53949C0.475541 7.04436 0.808837 5.71356 1.72002 4.58473C2.62265 3.46651 4.04755 2.60255 6.0941 1.94125C8.14162 1.27964 10.8525 0.807745 14.3778 0.501873C14.523 0.489279 14.6664 0.540626 14.7706 0.642482ZM2.91667 13.0819L10.0695 5.61065C10.2604 5.41118 10.2536 5.09468 10.0541 4.90371C9.85462 4.71274 9.53812 4.71964 9.34715 4.9191L2.1662 12.4197C1.77018 10.9452 1.52081 9.65452 1.50124 8.52221C1.47827 7.19351 1.77199 6.11244 2.49815 5.21283C3.23287 4.30262 4.45564 3.52159 6.40158 2.8928C8.23704 2.29971 10.6794 1.85374 13.8828 1.55082C13.6881 4.29534 13.3928 6.47733 12.9426 8.18773C12.4608 10.0183 11.8125 11.2653 10.9621 12.085C9.39549 13.5949 6.96092 13.8172 2.91667 13.0819Z" fill="#5C5DF7"/>
</svg>
