<svg width="65" height="69" viewBox="0 0 65 69" fill="none" xmlns="http://www.w3.org/2000/svg">
<g clip-path="url(#clip0)">
<path d="M32.5 68.5661C50.4493 68.5661 65 53.2171 65 34.2831C65 15.349 50.4493 0 32.5 0C14.5507 0 0 15.349 0 34.2831C0 53.2171 14.5507 68.5661 32.5 68.5661Z" fill="#D7E6FF"/>
<path d="M29.0247 32.0563L25.7297 26.0415L29.0247 20.0132H35.6148L38.9099 26.0415L35.6148 32.0563H29.0247Z" fill="#3C4153"/>
<path d="M42.9 9.17834H22.0228V18.6418H42.9V9.17834Z" fill="#C1C7DD"/>
<path d="M42.9772 9.17834L32.5644 20.0131L39.2317 30.5764L46.5554 16.3337L42.9772 9.17834Z" fill="white"/>
<path d="M22.0228 9.17834L32.5644 20.0131L25.7683 30.5764L18.4446 16.3337L22.0228 9.17834Z" fill="white"/>
<path d="M38.1505 54.9208L32.2168 61.5194L26.4119 54.9208L29.0247 32.0563H35.5376L38.1505 54.9208Z" fill="#5C5DF7"/>
</g>
<defs>
<clipPath id="clip0">
<rect width="65" height="68.5661" fill="white"/>
</clipPath>
</defs>
</svg>
