<svg width="537" height="513" viewBox="0 0 537 513" fill="none" xmlns="http://www.w3.org/2000/svg">
<path d="M397.873 227.038C417.807 227.694 437.455 222.156 454.114 211.187C470.772 200.218 483.622 184.356 490.895 165.784C498.169 147.212 499.509 126.843 494.73 107.478C489.952 88.1134 479.291 70.7052 464.213 57.6484C449.135 44.5917 430.382 36.528 410.533 34.5667C390.684 32.6055 370.715 36.8431 353.374 46.6966C336.032 56.55 322.17 71.5351 313.694 89.5902C305.219 107.645 302.546 127.883 306.045 147.519L350.584 139.585C348.726 129.154 350.145 118.405 354.647 108.815C359.149 99.2244 366.512 91.2648 375.724 86.031C384.935 80.7972 395.542 78.5463 406.084 79.5881C416.627 80.6298 426.589 84.913 434.597 91.8483C442.606 98.7836 448.269 108.03 450.807 118.316C453.345 128.602 452.634 139.421 448.77 149.286C444.907 159.151 438.081 167.576 429.233 173.403C420.385 179.229 409.948 182.171 399.36 181.822L397.873 227.038Z" fill="#3B46F4"/>
<rect x="384.906" y="10.3346" width="58.8787" height="35.9815" rx="5" transform="rotate(6.80429 384.906 10.3346)" fill="#3B46F4"/>
<rect x="493.554" y="51.8485" width="58.8787" height="35.9815" rx="5" transform="rotate(63.1043 493.554 51.8485)" fill="#3B46F4"/>
<rect x="501.828" y="192.191" width="58.8787" height="35.9814" rx="5" transform="rotate(140.765 501.828 192.191)" fill="#3B46F4"/>
<rect x="359.18" y="53.283" width="58.8787" height="35.9814" rx="5" transform="rotate(140.765 359.18 53.283)" fill="#3B46F4"/>
<path d="M387.818 300.308C394.388 309.521 403.651 316.471 414.333 320.202C425.015 323.934 436.591 324.264 447.468 321.146C458.345 318.029 467.989 311.618 475.073 302.794C482.157 293.971 486.333 283.17 487.026 271.876C487.719 260.582 484.895 249.351 478.943 239.728C472.992 230.105 464.204 222.562 453.79 218.138C443.375 213.715 431.846 212.626 420.788 215.024C409.73 217.421 399.686 223.187 392.039 231.526L410.955 248.872C415.017 244.442 420.352 241.38 426.226 240.106C432.099 238.833 438.223 239.411 443.755 241.76C449.287 244.11 453.955 248.117 457.116 253.228C460.277 258.34 461.777 264.305 461.409 270.304C461.041 276.303 458.823 282.04 455.06 286.727C451.298 291.413 446.175 294.819 440.398 296.475C434.62 298.13 428.471 297.955 422.797 295.973C417.124 293.991 412.203 290.299 408.713 285.406L387.818 300.308Z" fill="#5C5DF7"/>
<rect x="481.041" y="219.83" width="33.4018" height="20.4122" rx="5" transform="rotate(59.4248 481.041 219.83)" fill="#5C5DF7"/>
<rect x="499.745" y="283.105" width="33.4018" height="20.4122" rx="5" transform="rotate(115.725 499.745 283.105)" fill="#5C5DF7"/>
<rect x="439.33" y="335.169" width="33.4018" height="20.4122" rx="5" transform="rotate(-166.614 439.33 335.169)" fill="#5C5DF7"/>
<rect x="452.82" y="223.024" width="33.4018" height="20.4122" rx="5" transform="rotate(-166.614 452.82 223.024)" fill="#5C5DF7"/>
<path d="M76.1121 151.519C145.242 130.353 179.928 156.959 201.557 219.432L182.524 259.661C109.625 232.299 72.156 217.418 76.1121 151.519Z" fill="#3B46F4"/>
<path d="M95.7262 162.734L150.926 210.693M150.926 210.693L138.533 170.768M150.926 210.693L165.177 223.074M150.926 210.693L118.289 213.771M165.177 223.074L179.427 235.456M165.177 223.074L163.786 193.657M165.177 223.074L142.451 233.121" stroke="#7C85F4" stroke-width="2"/>
<path d="M125.116 73.7288C195.687 89.434 212.726 129.692 200.708 194.701L164.301 220.298C114.4 160.525 89.1549 129.092 125.116 73.7288Z" fill="#5C5DF7"/>
<path d="M234.141 29.661C285.653 80.3904 278.758 123.558 234.103 172.309L189.664 174.712C179.041 97.575 174.299 57.5395 234.141 29.661Z" fill="#7C85F4"/>
<path d="M125.573 75.14L156.668 141.323M156.668 141.323L161.476 99.7963M156.668 141.323L164.695 158.409M156.668 141.323L125.573 130.941M164.695 158.409L172.723 175.495M164.695 158.409L175.319 130.941M164.695 158.409H139.848" stroke="#D6DBDD" stroke-width="2"/>
<path d="M224.492 124.885L223.333 140.025M224.492 124.885L248.422 109.313M224.492 124.885L226.114 103.689M224.492 124.885L212.087 109.313M229.822 55.2419L226.114 103.689M226.114 103.689L244.529 82.061M226.114 103.689L208.626 79.0331" stroke="#E0E0E0" stroke-width="2"/>
<path d="M155.853 318.675C155.755 248.93 153.726 209.835 169.263 140.025H411.067V306.996C318.997 318.154 262.931 320.55 155.853 318.675Z" fill="white"/>
<path d="M303.791 218.752L254.478 260.711L259.669 265.902L306.819 230.864L315.47 236.055L361.322 181.984L366.081 185.012L371.271 160.356L349.643 173.765L354.834 177.658L313.74 226.106L303.791 218.752Z" fill="white"/>
<path d="M268.32 263.307V206.208H313.307L311.145 263.307H268.32Z" fill="#3B46F4"/>
<rect x="204.733" y="281.907" width="174.757" height="2.5954" fill="#006CFC"/>
<rect x="213.384" y="288.828" width="108.142" height="2.5954" transform="rotate(-90 213.384 288.828)" fill="#006CFC"/>
<path d="M333.205 500.786L344.02 411.677H339.694L329.312 500.786H333.205Z" fill="#3B46F4"/>
<path d="M408.472 505.977L399.821 412.542H395.495L405.444 505.977H408.472Z" fill="#3B46F4"/>
<path d="M380.355 313.484C416.878 316.947 424.61 332.878 397.225 406.486L344.452 403.891C335.867 359.272 344.584 339.83 380.355 313.484Z" fill="#3B46F4"/>
<path d="M215.547 249.032V265.469H262.697V249.032H215.547Z" fill="#7C85F4"/>
<path d="M316.768 187.175V265.469H359.592L363.053 187.175H316.768Z" fill="#7C85F4"/>
<path d="M400.253 414.272H355.699L384.248 397.835C397.844 397.347 402.054 400.282 400.253 414.272Z" fill="#5C5DF7"/>
<path d="M15.5 375.774H7.9151V351.55C12.0335 348.745 14.3944 347.797 18.7293 347.657L15.5 375.774Z" fill="#3B46F4"/>
<path d="M61.1208 511.6L48.5764 420.761H45.1158L57.2277 511.6H61.1208Z" fill="#3B46F4"/>
<path d="M5.31972 511.6L17.4316 421.193H14.8362L2.29175 511.6H5.31972Z" fill="#3B46F4"/>
<path d="M11.8082 374.476C1.08011 402.992 -2.22165 416.168 11.8082 419.031V421.626C-0.83569 418.363 -5.48921 413.315 8.78028 374.476H11.8082Z" fill="#3B46F4"/>
<path d="M74.5304 422.491H10.0779V413.407C23.0833 407.383 33.4592 407.687 53.7672 410.379L74.5304 422.491Z" fill="#5C5DF7"/>
<path d="M51.1718 265.902L49.009 296.614L60.2557 299.21L61.5534 293.154C67.1863 287.9 69.7535 283.648 69.3396 265.037L51.1718 265.902Z" fill="#FCB68B"/>
<path d="M53.3347 258.116C46.7429 259.949 48.1975 269.752 49.4416 284.935C49.5509 272.114 53.3347 267.632 55.065 272.39C56.7952 277.149 53.3347 290.126 53.3347 290.126C60.9033 294.153 65.2511 296.501 66.7443 295.316C68.4184 293.773 69.0532 291.885 68.4745 282.772C66.6162 281.063 65.5744 280.938 63.7163 282.772C61.4745 284.534 60.1354 285.026 57.2278 282.772C57.7812 272.614 58.288 268.442 59.8232 265.902C71.784 268.303 75.7128 267.681 73.2328 259.846C64.9115 261.244 60.734 260.19 53.3347 258.116Z" fill="#233075"/>
<path d="M77.1258 343.331C71.3304 329.589 68.2454 325.07 62.8511 319.108L66.3116 357.174L125.573 348.522C129.139 351.452 131.132 352.348 134.657 351.118L127.304 343.331C108.054 341.75 97.0852 341.665 77.1258 343.331Z" fill="#E89E78"/>
<path d="M110.001 418.165C99.5841 402.677 89.4751 394.07 66.7442 378.802L79.7212 420.761L53.7672 488.674H66.7442C93.3106 447.081 98.5666 437.768 110.001 418.165Z" fill="#181F3F"/>
<path d="M86.2097 428.115C29.3782 414.894 13.2653 404.272 16.5665 378.802H66.3117C85.4459 396.101 99.0821 408.125 109.136 418.165C113.905 428.758 120.05 455.117 129.899 495.595H119.085C103.294 469.846 95.2458 455.245 86.2097 428.115Z" fill="#2D3971"/>
<path d="M60.6883 297.047L49.4415 294.451C24.2959 303.196 19.1101 327.156 14.8362 380.532H69.7722C71.5125 348.626 72.0289 330.676 60.6883 297.047Z" fill="#222B53"/>
<path d="M58.5254 331.652L34.3017 339.006C42.2733 356.431 48.0333 363.452 59.8231 372.746C85.2529 365.199 95.0295 360.264 113.029 351.55C118.992 357.007 121.509 356.225 125.573 352.848C126.065 355.452 126.648 356.428 128.601 356.741L127.304 347.657L116.922 344.629L68.9071 352.848L58.5254 331.652Z" fill="#F3B798"/>
<path d="M61.5534 495.162C56.4063 496.723 55.6443 495.375 55.4975 491.702C51.876 494.835 50.645 496.511 48.5764 499.488L53.7672 504.679L55.4975 502.083L61.5534 508.572C69.929 510.676 74.6244 510.341 83 508.572C69.7011 501.469 62.2512 500.577 61.5534 495.162Z" fill="#1D2441"/>
<path d="M128.169 499.488H120.815C118.769 500.823 118.568 503.244 119.517 509.87H124.708V506.842C135.301 509.845 139.272 509.344 147.634 509.87C148.647 506.349 142.815 503.979 128.169 499.488Z" fill="#1D2441"/>
<path d="M120.815 499.488V493.432H127.304V500.353C124.694 501.238 123.271 501.094 120.815 499.488Z" fill="#F8B695"/>
<path d="M60.2557 498.19L65.4465 486.511L58.0928 485.646L53.3346 495.162L60.2557 498.19Z" fill="#F8B695"/>
<path d="M101.35 511.6L113.029 361.932H115.624L104.378 511.6H101.35Z" fill="#5C5DF7"/>
<path d="M461.245 361.932H458.65L470.329 511.6H473.357L461.245 361.932Z" fill="#5C5DF7"/>
<path d="M188.296 492.134L186.133 485.646L193.054 482.185L194.784 489.972L188.296 492.134Z" fill="#FAB693"/>
<path d="M207.761 496.893V487.376L215.115 486.944L214.682 496.893H207.761Z" fill="#FAB693"/>
<path d="M215.547 493.432H207.761C192.682 499.12 188.233 501.505 187.863 504.246C196.815 504.937 201.891 504.807 211.222 502.083V504.246H216.412C217.829 498.152 217.601 495.824 215.547 493.432Z" fill="#10064C"/>
<path d="M187.43 490.837C190.668 491.368 192.161 490.735 194.351 488.241C197.646 489.869 198.21 491.371 198.677 494.297L194.351 498.19L192.621 496.893C191.651 499.598 190.543 500.848 188.295 502.949H170.56C169.014 501.482 181.714 496.451 187.43 490.837Z" fill="#10064D"/>
<path d="M166.235 340.736L204.3 342.034C195.711 373.413 187.936 398.831 185.7 413.407C195.247 454.503 194.849 462.714 196.514 483.483L185.7 486.944C172.501 455.514 164.968 437.884 159.314 406.919C159.853 377.003 161.387 362.552 166.235 340.736Z" fill="#0A1974"/>
<path d="M206.031 489.539L181.374 338.573H219.008C221.653 364.251 221.709 379.833 216.412 412.11C223.036 440.703 220.008 458.408 216.412 489.539H206.031Z" fill="#061EA9"/>
<path d="M139.848 359.336V357.606L115.192 357.174V359.336H139.848Z" fill="#212B50"/>
<path d="M176.616 247.734C172.015 240.302 169.988 235.627 171.425 222.645L183.97 220.05L185.7 229.134C187.186 227.565 188.787 226.58 190.026 227.836C191.352 229.181 189.848 231.345 187.863 232.162C190.095 234.987 190.985 237.562 193.486 244.274L176.616 247.734Z" fill="#F8B692"/>
<path d="M193.486 243.841L183.105 246.436V252.06L197.812 249.897L193.486 243.841Z" fill="#1D1167"/>
<path d="M162.341 320.405C158.448 319.108 152.932 314.147 158.448 282.339L174.021 284.935C175.654 310.581 166.235 321.703 162.341 320.405Z" fill="#F79F6F"/>
<path d="M225.929 288.828C215.547 240.813 182.815 230.715 155.853 282.772L168.397 288.828L165.802 342.034H219.008V290.558L225.929 288.828Z" fill="#3A51D7"/>
<path d="M409.77 341.169C392.467 293.586 339.694 304.4 331.475 341.169H345.317V376.206L392.9 377.504L389.439 334.248L394.63 346.792L409.77 341.169Z" fill="#5C5DF7"/>
<path d="M365.648 312.187V306.996L376.462 292.721V311.893C372.353 314.173 369.97 314.148 365.648 312.187Z" fill="#FCB495"/>
<path d="M360.89 306.996C356.45 299.005 355.358 294.065 356.997 284.07L379.49 280.609V294.451C372.959 301.957 369.193 305.793 360.89 306.996Z" fill="#FFBFA4"/>
<path d="M370.406 284.07C358.65 291.066 354.12 290.356 349.643 281.042L349.682 280.929C351.419 275.995 352.405 273.194 359.592 274.553C364.285 270.504 366.778 267.804 373.002 268.497C375.219 264.925 376.749 263.46 380.788 263.307C393.965 266.82 394.647 275.015 391.602 293.586C404.759 315.617 410.226 326.954 391.602 332.085C382.069 328.888 383.687 316.797 385.521 315.235C383.073 317.241 371.271 295.316 375.164 291.856C379.057 288.395 378.286 285.616 373.002 286.665C371.236 285.835 371.042 285.175 370.406 284.07Z" fill="#233075"/>
<path d="M374.732 265.902L373.002 268.497C377.79 270.744 379.295 272.596 381.22 276.284C381.649 270.915 380.693 268.436 374.732 265.902Z" fill="#082BF7"/>
<path d="M413.23 358.904C413.445 349.445 412.068 345.219 407.174 339.438L395.062 345.062L398.956 350.252L367.811 348.522L366.081 355.443C382.708 357.572 392.688 358.479 413.23 358.904Z" fill="#F3A185"/>
<path d="M318.931 358.471C321.923 351.079 325.061 348.045 333.205 344.629L334.936 358.471H318.931Z" fill="#F3A185"/>
<path d="M364.35 331.652H318.066L331.475 359.336H389.439V356.308H375.597L364.35 331.652Z" fill="white"/>
<path d="M280.865 495.595L283.46 490.404L289.084 493.865L284.325 499.488L280.865 495.595Z" fill="#FBB78E"/>
<path d="M285.191 499.055L280.865 494.73C269.801 485.943 265.038 483.831 261.832 490.404L280.865 504.679C284.021 503.495 285.845 502.734 285.191 499.055Z" fill="#3B46F4"/>
<path d="M278.574 494.53L278.996 493.052C279.082 492.753 278.998 492.431 278.778 492.21C278.337 491.77 277.588 491.932 277.37 492.516L276.83 493.955C276.665 494.396 276.858 494.889 277.279 495.1C277.794 495.357 278.416 495.084 278.574 494.53Z" fill="white"/>
<path d="M273.42 491.8L274.272 489.883C274.547 489.264 275.326 489.061 275.867 489.468C276.26 489.763 276.398 490.29 276.198 490.739L275.346 492.656C275.071 493.275 274.292 493.477 273.751 493.071C273.357 492.776 273.22 492.249 273.42 491.8Z" fill="white"/>
<path d="M338.829 496.893V490.404H344.452V497.758C342.256 499.744 341.025 498.631 338.829 496.893Z" fill="#FBB78E"/>
<path d="M344.452 497.325C341.849 498.306 340.649 498.018 338.829 496.46C332.509 495.716 329.481 496.165 324.554 497.758C320.523 499.365 320.672 501.48 320.661 505.111H345.317C346.489 501.565 346.491 499.796 344.452 497.325Z" fill="#3B46F4"/>
<path d="M338.002 499.921C338.715 499.921 339.133 499.119 338.724 498.535L337 496.072C336.799 495.785 336.441 495.651 336.101 495.736C335.533 495.878 335.277 496.54 335.602 497.027L337.27 499.528C337.433 499.773 337.708 499.921 338.002 499.921Z" fill="white"/>
<path d="M331.671 497.301C331.167 496.653 331.629 495.71 332.449 495.71C332.807 495.71 333.137 495.904 333.311 496.217L334.539 498.428C334.832 498.955 334.451 499.603 333.848 499.603C333.604 499.603 333.374 499.49 333.224 499.298L331.671 497.301Z" fill="white"/>
<path d="M329.745 437.631C353.725 425.67 362.696 415.497 374.299 393.942L344.885 380.965L283.028 490.404L289.084 494.73L329.745 437.631Z" fill="#7C85F4"/>
<path d="M392.9 376.207C392.9 376.207 321.959 372.746 314.605 376.207C307.252 379.667 304.721 383.2 305.521 391.779C306.321 400.358 338.829 490.837 338.829 490.837H345.317C343.822 456.879 345.16 437.568 334.503 404.756C382.961 415.581 392.916 406.905 392.9 376.207Z" fill="#5253FC"/>
<path d="M530.023 497.758H523.535L523.102 503.814L530.456 502.949L530.023 497.758Z" fill="#F3A185"/>
<path d="M530.456 502.083L522.67 501.651C506.462 507.631 501.63 510.131 503.637 512.465H517.479L526.13 510.302V511.6H531.754C532.442 505.991 532.476 503.404 530.456 502.083Z" fill="#1E1927"/>
<path d="M507.962 497.325L505.8 491.702L500.176 494.297L501.474 500.353L507.962 497.325Z" fill="#F3A185"/>
<path d="M507.53 496.028C505.639 499.317 504.108 499.492 501.041 498.623C496.425 506.837 484.604 509.005 484.604 512.033H500.609C503.022 509.876 504.361 508.63 506.232 505.111L508.828 506.409L513.153 502.083C510.488 497.349 509.36 496.543 507.53 496.028Z" fill="#1E1927"/>
<path d="M453.459 274.553L457.352 282.772L466.869 275.851L457.352 262.009L453.459 274.553Z" fill="#F3A185"/>
<path d="M447.836 277.149C452.161 276.716 456.445 270.799 458.217 262.874L456.92 261.576C459.082 258.116 458.754 255.994 453.892 257.683L449.566 249.032L437.021 255.52C441.628 272.858 443.51 277.581 447.836 277.149Z" fill="#F9AB91"/>
<path d="M458.217 262.874C459.616 259.368 460.649 257.941 457.352 244.274C438.072 244.043 431.095 245.894 429.235 254.655C430.819 262.215 437.456 259.346 449.998 253.357L458.217 262.874Z" fill="#032B6B"/>
<path d="M454.324 353.28C453.352 330.11 453.927 317.933 459.082 299.21L468.166 312.619L459.082 355.011C458.111 357.076 456.933 357.986 453.026 358.904H432.696C436.192 356.765 437.954 355.579 443.943 353.28H454.324Z" fill="#F3A185"/>
<path d="M507.53 340.736L509.26 393.942L498.446 416.435C506.124 447.036 505.982 463.359 506.232 492.567L500.176 496.028C485.19 458.136 477.521 437.433 470.762 405.621C474.322 383.176 478.958 371.899 488.497 352.415L507.53 340.736Z" fill="#0748AE"/>
<path d="M497.148 347.657L526.13 327.326C539.308 341.374 539.244 362.124 532.619 410.379C538.395 427.363 535.096 454.595 530.888 498.623H523.102L497.148 347.657Z" fill="#1353B7"/>
<path d="M526.13 327.326C513.84 338.637 505.689 344.364 488.497 353.28C466.36 320.667 442.645 288.395 461.245 275.851C479.846 263.307 502.239 288.755 526.13 327.326Z" fill="#D7E6FF"/>
<path d="M475.953 304.4L457.785 292.721C450.618 301.418 445.218 306.911 429.235 319.54C414.504 324.701 407.645 328.068 395.928 334.247L387.276 329.057L369.109 332.085C370.933 334.604 372.847 335.503 381.22 334.247C381.905 337.019 383.17 338.537 387.276 341.169C423.511 336.646 443.067 329.45 475.953 304.4Z" fill="#F3A185"/>
<path d="M225.929 289.261L205.166 291.423L208.626 309.159L167.965 329.922C161.357 327.411 157.84 326.51 154.555 332.95C157.708 337.669 158.016 339.438 163.639 339.871L175.319 332.95C198.618 328.689 215.238 326.202 225.929 317.377C228.791 307.102 228.392 300.847 225.929 289.261Z" fill="#FEAF94"/>
<path d="M173.156 254.223C147.541 319.175 163.207 320.405 163.207 320.405C168.563 321.579 180.891 305.871 178.779 254.223C182.214 247.133 183.447 243.424 183.105 237.785C178.283 237.644 174.021 241.246 173.156 243.841C172.291 246.436 173.156 254.223 173.156 254.223Z" fill="#FEAF94"/>
<path d="M186.998 276.284H189.593L185.267 306.131H186.998C185.274 339.457 173.588 358.904 164.072 358.904H148.067V356.308C164.964 358.347 171.646 356.368 176.616 345.062L174.021 343.764L184.402 277.149L186.998 276.284Z" fill="#212B50"/>
<path d="M188.296 212.696C194.179 214.404 191.522 222.826 189.593 234.325L182.672 223.51C168.686 229.641 161.909 226.538 161.909 221.78C161.909 217.022 166.076 211.979 180.077 214.859C183.305 213.194 185.107 212.613 188.296 212.696Z" fill="#233075"/>
<path d="M100.917 363.229C100.917 360.84 102.854 358.904 105.243 358.904H466.869C469.258 358.904 471.194 360.84 471.194 363.229H100.917Z" fill="#3B46F4"/>
<rect x="162.341" y="133.104" width="255.214" height="11.2467" rx="5.62337" fill="#006CFC"/>
</svg>
